{
	"asset":{
		"generator":"Khronos glTF Blender I/O v5.0.21",
		"version":"2.0"
	},
	"extensionsUsed":[
		"KHR_materials_specular",
		"KHR_materials_ior"
	],
	"scene":0,
	"scenes":[
		{
			"name":"Scene",
			"nodes":[
				2
			]
		}
	],
	"nodes":[
		{
			"mesh":0,
			"name":"colplane-colonly.005",
			"scale":[
				1,
				0.9161050319671631,
				0.8023970127105713
			],
			"translation":[
				-7.553668638138333e-06,
				0,
				-1.003021240234375
			]
		},
		{
			"children":[
				0
			],
			"mesh":1,
			"name":"1m stair.002",
			"rotation":[
				0,
				-0.7071067094802856,
				0,
				0.7071068286895752
			],
			"translation":[
				1,
				0,
				0
			]
		},
		{
			"children":[
				1
			],
			"mesh":2,
			"name":"block_2x2stair"
		}
	],
	"materials":[
		{
			"doubleSided":true,
			"extensions":{
				"KHR_materials_specular":{
					"specularFactor":0
				},
				"KHR_materials_ior":{
					"ior":1.4500000476837158
				}
			},
			"name":"ATLAS3_Baked",
			"normalTexture":{
				"index":0
			},
			"pbrMetallicRoughness":{
				"baseColorTexture":{
					"index":1
				},
				"metallicFactor":0
			}
		}
	],
	"meshes":[
		{
			"name":"Cube.810",
			"primitives":[
				{
					"attributes":{
						"POSITION":0,
						"NORMAL":1,
						"TEXCOORD_0":2
					},
					"indices":3
				}
			]
		},
		{
			"name":"Cube.808",
			"primitives":[
				{
					"attributes":{
						"POSITION":4,
						"NORMAL":5,
						"TEXCOORD_0":6
					},
					"indices":7,
					"material":0
				}
			]
		},
		{
			"name":"Cube.766",
			"primitives":[
				{
					"attributes":{
						"POSITION":8,
						"NORMAL":9,
						"TEXCOORD_0":10
					},
					"indices":11,
					"material":0
				}
			]
		}
	],
	"textures":[
		{
			"sampler":0,
			"source":0
		},
		{
			"sampler":0,
			"source":1
		}
	],
	"images":[
		{
			"mimeType":"image/png",
			"name":"ATLAS5_bake1_PBR_Normal",
			"uri":"../textures/ATLAS5_bake1_PBR_Normal.png"
		},
		{
			"mimeType":"image/png",
			"name":"ATLAS5_bake1_PBR_Diffuse_posterized",
			"uri":"../textures/ATLAS5_bake1_PBR_Diffuse_posterized.png"
		}
	],
	"accessors":[
		{
			"bufferView":0,
			"componentType":5126,
			"count":14,
			"max":[
				0.8943371772766113,
				1.1226567029953003,
				1.2500011920928955
			],
			"min":[
				-0.8943358659744263,
				-0.010403290390968323,
				-0.22460559010505676
			],
			"type":"VEC3"
		},
		{
			"bufferView":1,
			"componentType":5126,
			"count":14,
			"type":"VEC3"
		},
		{
			"bufferView":2,
			"componentType":5126,
			"count":14,
			"type":"VEC2"
		},
		{
			"bufferView":3,
			"componentType":5123,
			"count":24,
			"type":"SCALAR"
		},
		{
			"bufferView":4,
			"componentType":5126,
			"count":479,
			"max":[
				0.9999936819076538,
				1.0420265197753906,
				1.1478383612484322e-06
			],
			"min":[
				-1.0000076293945312,
				-0.0021465939935296774,
				-1.002997875213623
			],
			"type":"VEC3"
		},
		{
			"bufferView":5,
			"componentType":5126,
			"count":479,
			"type":"VEC3"
		},
		{
			"bufferView":6,
			"componentType":5126,
			"count":479,
			"type":"VEC2"
		},
		{
			"bufferView":7,
			"componentType":5123,
			"count":810,
			"type":"SCALAR"
		},
		{
			"bufferView":8,
			"componentType":5126,
			"count":24,
			"max":[
				1.0000003576278687,
				1,
				0.9999989867210388
			],
			"min":[
				-1.0000004768371582,
				0,
				-1.0000011920928955
			],
			"type":"VEC3"
		},
		{
			"bufferView":9,
			"componentType":5126,
			"count":24,
			"type":"VEC3"
		},
		{
			"bufferView":10,
			"componentType":5126,
			"count":24,
			"type":"VEC2"
		},
		{
			"bufferView":11,
			"componentType":5123,
			"count":36,
			"type":"SCALAR"
		}
	],
	"bufferViews":[
		{
			"buffer":0,
			"byteLength":168,
			"byteOffset":0,
			"target":34962
		},
		{
			"buffer":0,
			"byteLength":168,
			"byteOffset":168,
			"target":34962
		},
		{
			"buffer":0,
			"byteLength":112,
			"byteOffset":336,
			"target":34962
		},
		{
			"buffer":0,
			"byteLength":48,
			"byteOffset":448,
			"target":34963
		},
		{
			"buffer":0,
			"byteLength":5748,
			"byteOffset":496,
			"target":34962
		},
		{
			"buffer":0,
			"byteLength":5748,
			"byteOffset":6244,
			"target":34962
		},
		{
			"buffer":0,
			"byteLength":3832,
			"byteOffset":11992,
			"target":34962
		},
		{
			"buffer":0,
			"byteLength":1620,
			"byteOffset":15824,
			"target":34963
		},
		{
			"buffer":0,
			"byteLength":288,
			"byteOffset":17444,
			"target":34962
		},
		{
			"buffer":0,
			"byteLength":288,
			"byteOffset":17732,
			"target":34962
		},
		{
			"buffer":0,
			"byteLength":192,
			"byteOffset":18020,
			"target":34962
		},
		{
			"buffer":0,
			"byteLength":72,
			"byteOffset":18212,
			"target":34963
		}
	],
	"samplers":[
		{
			"magFilter":9728,
			"minFilter":9984
		}
	],
	"buffers":[
		{
			"byteLength":18284,
			"uri":"block_2x2stair.bin"
		}
	]
}
