{
	"asset":{
		"generator":"Khronos glTF Blender I/O v5.0.21",
		"version":"2.0"
	},
	"extensionsUsed":[
		"KHR_materials_specular",
		"KHR_materials_ior"
	],
	"scene":0,
	"scenes":[
		{
			"name":"Scene",
			"nodes":[
				0
			]
		}
	],
	"nodes":[
		{
			"mesh":0,
			"name":"pillar_01"
		}
	],
	"materials":[
		{
			"doubleSided":true,
			"extensions":{
				"KHR_materials_specular":{
					"specularFactor":0
				},
				"KHR_materials_ior":{
					"ior":1.4500000476837158
				}
			},
			"name":"ATLAS3_Baked",
			"normalTexture":{
				"index":0
			},
			"pbrMetallicRoughness":{
				"baseColorTexture":{
					"index":1
				},
				"metallicFactor":0
			}
		}
	],
	"meshes":[
		{
			"name":"pillar_01_Mesh",
			"primitives":[
				{
					"attributes":{
						"POSITION":0,
						"NORMAL":1,
						"TEXCOORD_0":2,
						"TEXCOORD_1":3
					},
					"indices":4,
					"material":0
				}
			]
		}
	],
	"textures":[
		{
			"sampler":0,
			"source":0
		},
		{
			"sampler":0,
			"source":1
		}
	],
	"images":[
		{
			"mimeType":"image/png",
			"name":"ATLAS5_bake1_PBR_Normal",
			"uri":"../textures/ATLAS5_bake1_PBR_Normal.png"
		},
		{
			"mimeType":"image/png",
			"name":"ATLAS5_bake1_PBR_Diffuse_posterized",
			"uri":"../textures/ATLAS5_bake1_PBR_Diffuse_posterized.png"
		}
	],
	"accessors":[
		{
			"bufferView":0,
			"componentType":5126,
			"count":225,
			"max":[
				0.33281266689300537,
				2.996885061264038,
				0.33281266689300537
			],
			"min":[
				-0.33281266689300537,
				0,
				-0.33281266689300537
			],
			"type":"VEC3"
		},
		{
			"bufferView":1,
			"componentType":5126,
			"count":225,
			"type":"VEC3"
		},
		{
			"bufferView":2,
			"componentType":5126,
			"count":225,
			"type":"VEC2"
		},
		{
			"bufferView":3,
			"componentType":5126,
			"count":225,
			"type":"VEC2"
		},
		{
			"bufferView":4,
			"componentType":5123,
			"count":426,
			"type":"SCALAR"
		}
	],
	"bufferViews":[
		{
			"buffer":0,
			"byteLength":2700,
			"byteOffset":0,
			"target":34962
		},
		{
			"buffer":0,
			"byteLength":2700,
			"byteOffset":2700,
			"target":34962
		},
		{
			"buffer":0,
			"byteLength":1800,
			"byteOffset":5400,
			"target":34962
		},
		{
			"buffer":0,
			"byteLength":1800,
			"byteOffset":7200,
			"target":34962
		},
		{
			"buffer":0,
			"byteLength":852,
			"byteOffset":9000,
			"target":34963
		}
	],
	"samplers":[
		{
			"magFilter":9728,
			"minFilter":9984
		}
	],
	"buffers":[
		{
			"byteLength":9852,
			"uri":"pillar_01.bin"
		}
	]
}
