{
	"asset":{
		"generator":"Khronos glTF Blender I/O v5.0.21",
		"version":"2.0"
	},
	"extensionsUsed":[
		"KHR_materials_specular",
		"KHR_materials_ior"
	],
	"scene":0,
	"scenes":[
		{
			"name":"Scene",
			"nodes":[
				1
			]
		}
	],
	"nodes":[
		{
			"mesh":0,
			"name":"Chest_lid.003",
			"translation":[
				-0.49968719482421875,
				0.46461957693099976,
				-0.000762939453125
			]
		},
		{
			"children":[
				0
			],
			"mesh":1,
			"name":"chest_02.001"
		}
	],
	"animations":[
		{
			"channels":[
				{
					"sampler":0,
					"target":{
						"node":0,
						"path":"translation"
					}
				},
				{
					"sampler":1,
					"target":{
						"node":0,
						"path":"rotation"
					}
				},
				{
					"sampler":2,
					"target":{
						"node":0,
						"path":"scale"
					}
				}
			],
			"name":"Chest_lid.002Action.001",
			"samplers":[
				{
					"input":8,
					"interpolation":"LINEAR",
					"output":9
				},
				{
					"input":8,
					"interpolation":"LINEAR",
					"output":10
				},
				{
					"input":8,
					"interpolation":"LINEAR",
					"output":11
				}
			]
		}
	],
	"materials":[
		{
			"doubleSided":true,
			"extensions":{
				"KHR_materials_specular":{
					"specularFactor":0
				},
				"KHR_materials_ior":{
					"ior":1.4500000476837158
				}
			},
			"name":"ATLAS3_Baked",
			"normalTexture":{
				"index":0
			},
			"pbrMetallicRoughness":{
				"baseColorTexture":{
					"index":1
				},
				"metallicFactor":0
			}
		}
	],
	"meshes":[
		{
			"name":"Cylinder.133",
			"primitives":[
				{
					"attributes":{
						"POSITION":0,
						"NORMAL":1,
						"TEXCOORD_0":2
					},
					"indices":3,
					"material":0
				}
			]
		},
		{
			"name":"chest_02_Mesh",
			"primitives":[
				{
					"attributes":{
						"POSITION":4,
						"NORMAL":5,
						"TEXCOORD_0":6
					},
					"indices":7,
					"material":0
				}
			]
		}
	],
	"textures":[
		{
			"sampler":0,
			"source":0
		},
		{
			"sampler":0,
			"source":1
		}
	],
	"images":[
		{
			"mimeType":"image/png",
			"name":"ATLAS5_bake1_PBR_Normal",
			"uri":"../../textures/ATLAS5_bake1_PBR_Normal.png"
		},
		{
			"mimeType":"image/png",
			"name":"ATLAS5_bake1_PBR_Diffuse_posterized",
			"uri":"../../textures/ATLAS5_bake1_PBR_Diffuse_posterized.png"
		}
	],
	"accessors":[
		{
			"bufferView":0,
			"componentType":5126,
			"count":794,
			"max":[
				1.0904934406280518,
				0.5273033380508423,
				0.7996292114257812
			],
			"min":[
				-0.002009062096476555,
				-0.0037550032138824463,
				-0.8003768920898438
			],
			"type":"VEC3"
		},
		{
			"bufferView":1,
			"componentType":5126,
			"count":794,
			"type":"VEC3"
		},
		{
			"bufferView":2,
			"componentType":5126,
			"count":794,
			"type":"VEC2"
		},
		{
			"bufferView":3,
			"componentType":5123,
			"count":1332,
			"type":"SCALAR"
		},
		{
			"bufferView":4,
			"componentType":5126,
			"count":1000,
			"max":[
				0.5299999713897705,
				0.46817880868911743,
				0.830003023147583
			],
			"min":[
				-0.5625019669532776,
				-1.862645149230957e-09,
				-0.830003023147583
			],
			"type":"VEC3"
		},
		{
			"bufferView":5,
			"componentType":5126,
			"count":1000,
			"type":"VEC3"
		},
		{
			"bufferView":6,
			"componentType":5126,
			"count":1000,
			"type":"VEC2"
		},
		{
			"bufferView":7,
			"componentType":5123,
			"count":1908,
			"type":"SCALAR"
		},
		{
			"bufferView":8,
			"componentType":5126,
			"count":1,
			"max":[
				6.466666666666667
			],
			"min":[
				6.466666666666667
			],
			"type":"SCALAR"
		},
		{
			"bufferView":9,
			"componentType":5126,
			"count":1,
			"type":"VEC3"
		},
		{
			"bufferView":10,
			"componentType":5126,
			"count":1,
			"type":"VEC4"
		},
		{
			"bufferView":11,
			"componentType":5126,
			"count":1,
			"type":"VEC3"
		}
	],
	"bufferViews":[
		{
			"buffer":0,
			"byteLength":9528,
			"byteOffset":0,
			"target":34962
		},
		{
			"buffer":0,
			"byteLength":9528,
			"byteOffset":9528,
			"target":34962
		},
		{
			"buffer":0,
			"byteLength":6352,
			"byteOffset":19056,
			"target":34962
		},
		{
			"buffer":0,
			"byteLength":2664,
			"byteOffset":25408,
			"target":34963
		},
		{
			"buffer":0,
			"byteLength":12000,
			"byteOffset":28072,
			"target":34962
		},
		{
			"buffer":0,
			"byteLength":12000,
			"byteOffset":40072,
			"target":34962
		},
		{
			"buffer":0,
			"byteLength":8000,
			"byteOffset":52072,
			"target":34962
		},
		{
			"buffer":0,
			"byteLength":3816,
			"byteOffset":60072,
			"target":34963
		},
		{
			"buffer":0,
			"byteLength":4,
			"byteOffset":63888
		},
		{
			"buffer":0,
			"byteLength":12,
			"byteOffset":63892
		},
		{
			"buffer":0,
			"byteLength":16,
			"byteOffset":63904
		},
		{
			"buffer":0,
			"byteLength":12,
			"byteOffset":63920
		}
	],
	"samplers":[
		{
			"magFilter":9728,
			"minFilter":9984
		}
	],
	"buffers":[
		{
			"byteLength":63932,
			"uri":"chest_02_001.bin"
		}
	]
}
