{
	"asset":{
		"generator":"Khronos glTF Blender I/O v5.0.21",
		"version":"2.0"
	},
	"extensionsUsed":[
		"KHR_materials_specular",
		"KHR_materials_ior"
	],
	"scene":0,
	"scenes":[
		{
			"name":"Scene",
			"nodes":[
				0
			]
		}
	],
	"nodes":[
		{
			"mesh":0,
			"name":"floor_stone_dark_01"
		}
	],
	"materials":[
		{
			"doubleSided":true,
			"extensions":{
				"KHR_materials_specular":{
					"specularFactor":0
				},
				"KHR_materials_ior":{
					"ior":1.4500000476837158
				}
			},
			"name":"ATLAS3_Baked",
			"normalTexture":{
				"index":0
			},
			"pbrMetallicRoughness":{
				"baseColorTexture":{
					"index":1
				},
				"metallicFactor":0
			}
		}
	],
	"meshes":[
		{
			"name":"floor_stone_dark_01_Mesh",
			"primitives":[
				{
					"attributes":{
						"POSITION":0,
						"NORMAL":1,
						"TEXCOORD_0":2,
						"TEXCOORD_1":3,
						"COLOR_0":4,
						"COLOR_1":5
					},
					"indices":6,
					"material":0
				}
			]
		}
	],
	"textures":[
		{
			"sampler":0,
			"source":0
		},
		{
			"sampler":0,
			"source":1
		}
	],
	"images":[
		{
			"mimeType":"image/png",
			"name":"ATLAS5_bake1_PBR_Normal",
			"uri":"../../../textures/ATLAS5_bake1_PBR_Normal.png"
		},
		{
			"mimeType":"image/png",
			"name":"ATLAS5_bake1_PBR_Diffuse_posterized",
			"uri":"../../../textures/ATLAS5_bake1_PBR_Diffuse_posterized.png"
		}
	],
	"accessors":[
		{
			"bufferView":0,
			"componentType":5126,
			"count":42,
			"max":[
				1,
				0.019999999552965164,
				3
			],
			"min":[
				-3,
				0,
				-1
			],
			"type":"VEC3"
		},
		{
			"bufferView":1,
			"componentType":5126,
			"count":42,
			"type":"VEC3"
		},
		{
			"bufferView":2,
			"componentType":5126,
			"count":42,
			"type":"VEC2"
		},
		{
			"bufferView":3,
			"componentType":5126,
			"count":42,
			"type":"VEC2"
		},
		{
			"bufferView":4,
			"componentType":5121,
			"count":42,
			"normalized":true,
			"type":"VEC4"
		},
		{
			"bufferView":5,
			"componentType":5123,
			"count":42,
			"normalized":true,
			"type":"VEC4"
		},
		{
			"bufferView":6,
			"componentType":5123,
			"count":96,
			"type":"SCALAR"
		}
	],
	"bufferViews":[
		{
			"buffer":0,
			"byteLength":504,
			"byteOffset":0,
			"target":34962
		},
		{
			"buffer":0,
			"byteLength":504,
			"byteOffset":504,
			"target":34962
		},
		{
			"buffer":0,
			"byteLength":336,
			"byteOffset":1008,
			"target":34962
		},
		{
			"buffer":0,
			"byteLength":336,
			"byteOffset":1344,
			"target":34962
		},
		{
			"buffer":0,
			"byteLength":168,
			"byteOffset":1680,
			"target":34962
		},
		{
			"buffer":0,
			"byteLength":336,
			"byteOffset":1848,
			"target":34962
		},
		{
			"buffer":0,
			"byteLength":192,
			"byteOffset":2184,
			"target":34963
		}
	],
	"samplers":[
		{
			"magFilter":9728,
			"minFilter":9984
		}
	],
	"buffers":[
		{
			"byteLength":2376,
			"uri":"floor_stone_dark_01.bin"
		}
	]
}
