{
	"asset":{
		"generator":"Khronos glTF Blender I/O v5.0.21",
		"version":"2.0"
	},
	"extensionsUsed":[
		"KHR_materials_specular",
		"KHR_materials_ior"
	],
	"scene":0,
	"scenes":[
		{
			"name":"Scene",
			"nodes":[
				1
			]
		}
	],
	"nodes":[
		{
			"mesh":0,
			"name":"colplane-colonly.002",
			"scale":[
				2,
				0.9161050319671631,
				0.8023969531059265
			],
			"translation":[
				-1.510733909526607e-05,
				0,
				-1.0030059814453125
			]
		},
		{
			"children":[
				0
			],
			"mesh":1,
			"name":"stairs_1m_02",
			"rotation":[
				0,
				-1,
				0,
				7.549790126404332e-08
			]
		}
	],
	"materials":[
		{
			"doubleSided":true,
			"extensions":{
				"KHR_materials_specular":{
					"specularFactor":0
				},
				"KHR_materials_ior":{
					"ior":1.4500000476837158
				}
			},
			"name":"ATLAS3_Baked",
			"normalTexture":{
				"index":0
			},
			"pbrMetallicRoughness":{
				"baseColorTexture":{
					"index":1
				},
				"metallicFactor":0
			}
		}
	],
	"meshes":[
		{
			"name":"Cube.824",
			"primitives":[
				{
					"attributes":{
						"POSITION":0,
						"NORMAL":1,
						"TEXCOORD_0":2
					},
					"indices":3
				}
			]
		},
		{
			"name":"Cube.823",
			"primitives":[
				{
					"attributes":{
						"POSITION":4,
						"NORMAL":5,
						"TEXCOORD_0":6
					},
					"indices":7,
					"material":0
				}
			]
		}
	],
	"textures":[
		{
			"sampler":0,
			"source":0
		},
		{
			"sampler":0,
			"source":1
		}
	],
	"images":[
		{
			"mimeType":"image/png",
			"name":"ATLAS5_bake1_PBR_Normal",
			"uri":"../../textures/ATLAS5_bake1_PBR_Normal.png"
		},
		{
			"mimeType":"image/png",
			"name":"ATLAS5_bake1_PBR_Diffuse_posterized",
			"uri":"../../textures/ATLAS5_bake1_PBR_Diffuse_posterized.png"
		}
	],
	"accessors":[
		{
			"bufferView":0,
			"componentType":5126,
			"count":14,
			"max":[
				0.8943371772766113,
				1.1226567029953003,
				1.2500011920928955
			],
			"min":[
				-0.8943358659744263,
				-0.010403290390968323,
				-0.22460559010505676
			],
			"type":"VEC3"
		},
		{
			"bufferView":1,
			"componentType":5126,
			"count":14,
			"type":"VEC3"
		},
		{
			"bufferView":2,
			"componentType":5126,
			"count":14,
			"type":"VEC2"
		},
		{
			"bufferView":3,
			"componentType":5123,
			"count":24,
			"type":"SCALAR"
		},
		{
			"bufferView":4,
			"componentType":5126,
			"count":487,
			"max":[
				1.9999873638153076,
				1.0420265197753906,
				1.1478382475615945e-06
			],
			"min":[
				-2.0000152587890625,
				-0.0021465939935296774,
				-1.002997875213623
			],
			"type":"VEC3"
		},
		{
			"bufferView":5,
			"componentType":5126,
			"count":487,
			"type":"VEC3"
		},
		{
			"bufferView":6,
			"componentType":5126,
			"count":487,
			"type":"VEC2"
		},
		{
			"bufferView":7,
			"componentType":5123,
			"count":810,
			"type":"SCALAR"
		}
	],
	"bufferViews":[
		{
			"buffer":0,
			"byteLength":168,
			"byteOffset":0,
			"target":34962
		},
		{
			"buffer":0,
			"byteLength":168,
			"byteOffset":168,
			"target":34962
		},
		{
			"buffer":0,
			"byteLength":112,
			"byteOffset":336,
			"target":34962
		},
		{
			"buffer":0,
			"byteLength":48,
			"byteOffset":448,
			"target":34963
		},
		{
			"buffer":0,
			"byteLength":5844,
			"byteOffset":496,
			"target":34962
		},
		{
			"buffer":0,
			"byteLength":5844,
			"byteOffset":6340,
			"target":34962
		},
		{
			"buffer":0,
			"byteLength":3896,
			"byteOffset":12184,
			"target":34962
		},
		{
			"buffer":0,
			"byteLength":1620,
			"byteOffset":16080,
			"target":34963
		}
	],
	"samplers":[
		{
			"magFilter":9728,
			"minFilter":9984
		}
	],
	"buffers":[
		{
			"byteLength":17700,
			"uri":"stairs_1m_02.bin"
		}
	]
}
