{
	"asset":{
		"generator":"Khronos glTF Blender I/O v5.0.21",
		"version":"2.0"
	},
	"extensionsUsed":[
		"KHR_materials_specular",
		"KHR_materials_ior"
	],
	"scene":0,
	"scenes":[
		{
			"name":"Scene",
			"nodes":[
				0
			]
		}
	],
	"nodes":[
		{
			"mesh":0,
			"name":"door_gate_02"
		}
	],
	"materials":[
		{
			"doubleSided":true,
			"extensions":{
				"KHR_materials_specular":{
					"specularFactor":0
				},
				"KHR_materials_ior":{
					"ior":1.4500000476837158
				}
			},
			"name":"ATLAS3_Baked",
			"normalTexture":{
				"index":0
			},
			"pbrMetallicRoughness":{
				"baseColorTexture":{
					"index":1
				},
				"metallicFactor":0
			}
		}
	],
	"meshes":[
		{
			"name":"Cube.794",
			"primitives":[
				{
					"attributes":{
						"POSITION":0,
						"NORMAL":1,
						"TEXCOORD_0":2,
						"COLOR_0":3,
						"COLOR_1":4
					},
					"indices":5,
					"material":0
				}
			]
		}
	],
	"textures":[
		{
			"sampler":0,
			"source":0
		},
		{
			"sampler":0,
			"source":1
		}
	],
	"images":[
		{
			"mimeType":"image/png",
			"name":"ATLAS5_bake1_PBR_Normal",
			"uri":"../../textures/ATLAS5_bake1_PBR_Normal.png"
		},
		{
			"mimeType":"image/png",
			"name":"ATLAS5_bake1_PBR_Diffuse_posterized",
			"uri":"../../textures/ATLAS5_bake1_PBR_Diffuse_posterized.png"
		}
	],
	"accessors":[
		{
			"bufferView":0,
			"componentType":5126,
			"count":698,
			"max":[
				0.1873418539762497,
				1.9797292947769165,
				0.025123603641986847
			],
			"min":[
				-0.1873418539762497,
				-1.4901161193847656e-08,
				-1.214876413345337
			],
			"type":"VEC3"
		},
		{
			"bufferView":1,
			"componentType":5126,
			"count":698,
			"type":"VEC3"
		},
		{
			"bufferView":2,
			"componentType":5126,
			"count":698,
			"type":"VEC2"
		},
		{
			"bufferView":3,
			"componentType":5121,
			"count":698,
			"normalized":true,
			"type":"VEC4"
		},
		{
			"bufferView":4,
			"componentType":5123,
			"count":698,
			"normalized":true,
			"type":"VEC4"
		},
		{
			"bufferView":5,
			"componentType":5123,
			"count":1032,
			"type":"SCALAR"
		}
	],
	"bufferViews":[
		{
			"buffer":0,
			"byteLength":8376,
			"byteOffset":0,
			"target":34962
		},
		{
			"buffer":0,
			"byteLength":8376,
			"byteOffset":8376,
			"target":34962
		},
		{
			"buffer":0,
			"byteLength":5584,
			"byteOffset":16752,
			"target":34962
		},
		{
			"buffer":0,
			"byteLength":2792,
			"byteOffset":22336,
			"target":34962
		},
		{
			"buffer":0,
			"byteLength":5584,
			"byteOffset":25128,
			"target":34962
		},
		{
			"buffer":0,
			"byteLength":2064,
			"byteOffset":30712,
			"target":34963
		}
	],
	"samplers":[
		{
			"magFilter":9728,
			"minFilter":9984
		}
	],
	"buffers":[
		{
			"byteLength":32776,
			"uri":"door_gate_02.bin"
		}
	]
}
