{
	"asset":{
		"generator":"Khronos glTF Blender I/O v5.0.21",
		"version":"2.0"
	},
	"extensionsUsed":[
		"KHR_materials_specular",
		"KHR_materials_ior"
	],
	"scene":0,
	"scenes":[
		{
			"name":"Scene",
			"nodes":[
				0
			]
		}
	],
	"nodes":[
		{
			"mesh":0,
			"name":"roof_set1_01"
		}
	],
	"materials":[
		{
			"doubleSided":true,
			"extensions":{
				"KHR_materials_specular":{
					"specularFactor":0
				},
				"KHR_materials_ior":{
					"ior":1.4500000476837158
				}
			},
			"name":"ATLAS3_Baked",
			"normalTexture":{
				"index":0
			},
			"pbrMetallicRoughness":{
				"baseColorTexture":{
					"index":1
				},
				"metallicFactor":0
			}
		}
	],
	"meshes":[
		{
			"name":"roof_set1_01_Mesh",
			"primitives":[
				{
					"attributes":{
						"POSITION":0,
						"NORMAL":1,
						"TEXCOORD_0":2
					},
					"indices":3,
					"material":0
				}
			]
		}
	],
	"textures":[
		{
			"sampler":0,
			"source":0
		},
		{
			"sampler":0,
			"source":1
		}
	],
	"images":[
		{
			"mimeType":"image/png",
			"name":"ATLAS5_bake1_PBR_Normal",
			"uri":"../../textures/ATLAS5_bake1_PBR_Normal.png"
		},
		{
			"mimeType":"image/png",
			"name":"ATLAS5_bake1_PBR_Diffuse_posterized",
			"uri":"../../textures/ATLAS5_bake1_PBR_Diffuse_posterized.png"
		}
	],
	"accessors":[
		{
			"bufferView":0,
			"componentType":5126,
			"count":139,
			"max":[
				2.0000076293945312,
				1,
				2
			],
			"min":[
				-2.0000076293945312,
				-3.924164392412645e-14,
				-2
			],
			"type":"VEC3"
		},
		{
			"bufferView":1,
			"componentType":5126,
			"count":139,
			"type":"VEC3"
		},
		{
			"bufferView":2,
			"componentType":5126,
			"count":139,
			"type":"VEC2"
		},
		{
			"bufferView":3,
			"componentType":5123,
			"count":273,
			"type":"SCALAR"
		}
	],
	"bufferViews":[
		{
			"buffer":0,
			"byteLength":1668,
			"byteOffset":0,
			"target":34962
		},
		{
			"buffer":0,
			"byteLength":1668,
			"byteOffset":1668,
			"target":34962
		},
		{
			"buffer":0,
			"byteLength":1112,
			"byteOffset":3336,
			"target":34962
		},
		{
			"buffer":0,
			"byteLength":546,
			"byteOffset":4448,
			"target":34963
		}
	],
	"samplers":[
		{
			"magFilter":9728,
			"minFilter":9984
		}
	],
	"buffers":[
		{
			"byteLength":4996,
			"uri":"roof_set1_01.bin"
		}
	]
}
